# File created by Blade
# Date/Time:  Wed Jan 21 15:15:34 2015
#---------------------------------------------------------
:version 1.10
:name HOM
:units
  mass 1.0
  length 1.000000
  angle deg
:documentation
     Acclaim Skeleton File
:root
   axis xyz
   order TX TY TZ RX RY RZ
   position 0.000000 0.000000 0.000000
   orientation 0 0 0
:bonedata
   begin
      id 1
      name Spine_dum
      direction 0.000000 1.000000 0.000000
      length 7.067664
      axis 0.0 0.0 0.0 xyz
   end
   begin
      id 2
      name LeftUpLeg_dum
      direction 1.000000 0.000000 0.000000
      length 4.013002
      axis 0.0 0.0 0.0 xyz
   end
   begin
      id 3
      name RightUpLeg_dum
      direction -1.000000 0.000000 0.000000
      length 4.013002
      axis 0.0 0.0 0.0 xyz
   end
   begin
      id 4
      name Spine
      direction 0.000000 1.000000 0.000000
      length 0.000000
      axis 0.0 0.0 0.0 xyz
      dof rx ry rz
   end
   begin
      id 5
      name Spine_dum1
      direction 0.000000 1.000000 0.000000
      length 15.039886
      axis 0.0 0.0 0.0 xyz
   end
   begin
      id 6
      name Spine_dum2
      direction 0.000000 1.000000 0.000000
      length 10.530368
      axis 0.0 0.0 0.0 xyz
   end
   begin
      id 7
      name Spine_dum3
      direction 0.000000 1.000000 0.000000
      length 10.530368
      axis 0.0 0.0 0.0 xyz
   end
   begin
      id 8
      name Head
      direction 0.000000 1.000000 0.000000
      length 4.527550
      axis 0.0 0.0 0.0 xyz
      dof rx ry rz
   end
   begin
      id 9
      name LeftShoulder
      direction 1.000000 0.000000 0.000000
      length 7.028855
      axis 0.0 0.0 -90.0 xyz
      dof rx ry rz
   end
   begin
      id 10
      name LeftArm
      direction 1.000000 0.000000 0.000000
      length 10.797705
      axis 0.0 0.0 -90.0 xyz
      dof rx ry rz
   end
   begin
      id 11
      name LeftForeArm
      direction 1.000000 0.000000 0.000000
      length 7.907442
      axis 0.0 0.0 -90.0 xyz
      dof ry rz rx
   end
   begin
      id 12
      name LeftHand
      direction 0.000000 0.000000 0.000000
      length 0.000000
      axis 0.0 0.0 -90.0 xyz
      dof rx ry rz
   end
   begin
      id 13
      name LeftHand_dum1
      direction 0.000000 0.000000 0.000000
      length 0.000000
      axis 0.0 0.0 -90.0 xyz
   end
   begin
      id 14
      name LeftHand_dum2
      direction 1.000000 0.000000 0.000000
      length 3.937000
      axis 0.0 0.0 -90.0 xyz
   end
   begin
      id 15
      name LeftHandThumb1
      direction 0.000000 0.000000 1.000000
      length 3.937000
      axis 0.0 0.0 -90.0 xyz
      dof rx rz ry
   end
   begin
      id 16
      name RightShoulder
      direction -1.000000 0.000000 0.000000
      length 7.028855
      axis 0.0 0.0 90.0 xyz
      dof rx ry rz
   end
   begin
      id 17
      name RightArm
      direction -1.000000 0.000000 0.000000
      length 10.797705
      axis 0.0 0.0 90.0 xyz
      dof rx ry rz
   end
   begin
      id 18
      name RightForeArm
      direction -1.000000 0.000000 0.000000
      length 7.907442
      axis 0.0 0.0 90.0 xyz
      dof ry rz rx
   end
   begin
      id 19
      name RightHand
      direction 0.000000 0.000000 0.000000
      length 0.000000
      axis 0.0 0.0 90.0 xyz
      dof rx ry rz
   end
   begin
      id 20
      name RightHand_dum1
      direction 0.000000 0.000000 0.000000
      length 0.000000
      axis 0.0 0.0 90.0 xyz
   end
   begin
      id 21
      name RightHand_dum2
      direction -1.000000 0.000000 0.000000
      length 3.937000
      axis 0.0 0.0 90.0 xyz
   end
   begin
      id 22
      name RightHandThumb1
      direction 0.000000 0.000000 1.000000
      length 3.937000
      axis 0.0 0.0 90.0 xyz
      dof rx rz ry
   end
   begin
      id 23
      name LeftUpLeg
      direction 0.000000 -1.000000 0.000000
      length 16.899758
      axis 0.0 0.0 0.0 xyz
      dof rx ry rz
   end
   begin
      id 24
      name LeftLeg
      direction 0.000000 -1.000000 0.000000
      length 17.389183
      axis 0.0 0.0 0.0 xyz
      dof rx ry rz
   end
   begin
      id 25
      name LeftFoot
      direction 0.000000 -0.258819 0.965926
      length 4.924528
      axis 15.0 0.0 0.0 xyz
      dof rx ry rz
   end
   begin
      id 26
      name LeftToeBase
      direction 0.000000 0.000000 1.000000
      length 2.952750
      axis 0.0 0.0 0.0 xyz
      dof rx ry rz
   end
   begin
      id 27
      name RightUpLeg
      direction 0.000000 -1.000000 0.000000
      length 16.899758
      axis 0.0 0.0 0.0 xyz
      dof rx ry rz
   end
   begin
      id 28
      name RightLeg
      direction 0.000000 -1.000000 0.000000
      length 17.389183
      axis 0.0 0.0 0.0 xyz
      dof rx ry rz
   end
   begin
      id 29
      name RightFoot
      direction 0.000000 -0.258819 0.965926
      length 4.924528
      axis 15.0 0.0 0.0 xyz
      dof rx ry rz
   end
   begin
      id 30
      name RightToeBase
      direction 0.000000 0.000000 1.000000
      length 2.952750
      axis 0.0 0.0 0.0 xyz
      dof rx ry rz
   end
:hierarchy
   begin
      root Spine_dum LeftUpLeg_dum RightUpLeg_dum
      Spine_dum Spine
      LeftUpLeg_dum LeftUpLeg
      RightUpLeg_dum RightUpLeg
      Spine Spine_dum1 Spine_dum2 Spine_dum3
      Spine_dum1 Head
      Spine_dum2 LeftShoulder
      Spine_dum3 RightShoulder
      LeftShoulder LeftArm
      LeftArm LeftForeArm
      LeftForeArm LeftHand
      LeftHand LeftHand_dum1 LeftHand_dum2
      LeftHand_dum1 LeftHandThumb1
      RightShoulder RightArm
      RightArm RightForeArm
      RightForeArm RightHand
      RightHand RightHand_dum1 RightHand_dum2
      RightHand_dum1 RightHandThumb1
      LeftUpLeg LeftLeg
      LeftLeg LeftFoot
      LeftFoot LeftToeBase
      RightUpLeg RightLeg
      RightLeg RightFoot
      RightFoot RightToeBase
   end

# File created by Blade
# Date/Time:  Wed Jan 21 15:15:22 2015
# Frame Rate: 120.000 fps
#------------------------------------------------------
:FULLY-SPECIFIED
:DEGREES
1
root 16.313879 35.341219 -21.305054 120.890288 -87.993051 -111.608355
Spine -20.928336 -0.272058 2.648334
Head 7.330117 0.561212 -0.069919
LeftShoulder -15.200286 -33.851858 22.293100
LeftArm -0.220358 2.982047 -6.824018
LeftForeArm 13.148823 -0.000000 -2.380339
LeftHand -7.970499 0.000000 -7.289436
LeftHandThumb1 -26.253704 0.000000 33.147579
RightShoulder -12.371654 -2.572937 -12.291470
RightArm 6.367009 34.950245 8.961055
RightForeArm -39.621590 -0.000000 4.850716
RightHand -5.964240 -0.000000 12.339850
RightHandThumb1 -24.326973 -0.000000 -32.862282
LeftUpLeg -1.346038 12.794859 4.482086
LeftLeg -5.878802 -0.000000 0.000000
LeftFoot -20.127555 27.345460 -13.173141
LeftToeBase 26.936481 -0.000000 -0.000000
RightUpLeg -2.209872 -9.200377 -0.955248
RightLeg -2.553556 -0.000000 0.000000
RightFoot -21.011064 -22.158625 17.026010
RightToeBase 24.444899 -0.000000 -0.000000
2
root 16.318320 35.341602 -21.303642 120.565535 -88.005366 -111.303673
Spine -20.908055 -0.286402 2.654327
Head 7.332810 0.555581 -0.082344
LeftShoulder -15.202021 -33.859295 22.298359
LeftArm -0.223581 2.969189 -6.836260
LeftForeArm 13.128384 -0.000000 -2.376021
LeftHand -8.000493 -0.000000 -7.287843
LeftHandThumb1 -26.253704 0.000000 33.147579
RightShoulder -12.368337 -2.568027 -12.278711
RightArm 6.376459 34.874540 8.965293
RightForeArm -39.524417 0.000000 4.858551
RightHand -5.935575 -0.000000 12.325920
RightHandThumb1 -24.326973 -0.000000 -32.862282
LeftUpLeg -1.337573 12.797038 4.475044
LeftLeg -5.878276 -0.000000 0.000000
LeftFoot -20.110044 27.330341 -13.157259
LeftToeBase 26.926389 -0.000000 -0.000000
RightUpLeg -2.189431 -9.206626 -0.966664
RightLeg -2.563592 -0.000000 0.000000
RightFoot -20.999249 -22.170359 17.011824
RightToeBase 24.469167 -0.000000 -0.000000
3
root 16.323382 35.342328 -21.302838 120.266479 -88.015268 -111.015547
Spine -20.902628 -0.289005 2.660818
Head 7.348130 0.547577 -0.090194
LeftShoulder -15.178331 -33.863303 22.286698
LeftArm -0.234936 2.971782 -6.841077
LeftForeArm 13.099427 -0.000000 -2.374156
LeftHand -8.010590 -0.000000 -7.322251
LeftHandThumb1 -26.253704 0.000000 33.147579
RightShoulder -12.344882 -2.563419 -12.269814
RightArm 6.348016 34.870622 8.953965
RightForeArm -39.454477 -0.000000 4.855220
RightHand -5.959579 -0.000000 12.426519
RightHandThumb1 -24.326973 -0.000000 -32.862282
LeftUpLeg -1.339057 12.785937 4.469942
LeftLeg -5.875658 -0.000000 0.000000
LeftFoot -20.098986 27.332450 -13.156633
LeftToeBase 26.944019 -0.000000 -0.000000
RightUpLeg -2.182820 -9.197691 -0.973691
RightLeg -2.566300 -0.000000 0.000000
RightFoot -21.017886 -22.175539 17.058207
RightToeBase 24.469110 -0.000000 -0.000000
4
root 16.329012 35.343017 -21.301723 119.951082 -88.025833 -110.709867
Spine -20.899933 -0.288879 2.670604
Head 7.364711 0.545887 -0.103138
LeftShoulder -15.155074 -33.859199 22.266993
LeftArm -0.233213 2.968416 -6.849251
LeftForeArm 13.074844 0.000000 -2.384429
LeftHand -8.008503 -0.000000 -7.354310
LeftHandThumb1 -26.253704 0.000000 33.147579
RightShoulder -12.330941 -2.577347 -12.266937
RightArm 6.349361 34.904102 8.965871
RightForeArm -39.470743 -0.000000 4.835236
RightHand -6.072789 -0.000000 12.446608
RightHandThumb1 -24.326973 -0.000000 -32.862282
LeftUpLeg -1.343416 12.779472 4.462730
LeftLeg -5.872721 -0.000000 0.000000
LeftFoot -20.091596 27.323486 -13.161869
LeftToeBase 26.919189 -0.000000 -0.000000
RightUpLeg -2.179550 -9.200427 -0.980601
RightLeg -2.566071 -0.000000 0.000000
RightFoot -21.017776 -22.182641 17.066357
RightToeBase 24.498821 -0.000000 -0.000000
5
root 16.333731 35.343508 -21.301435 119.384599 -88.034648 -110.161071
Spine -20.886388 -0.293844 2.680699
Head 7.383312 0.512085 -0.127415
LeftShoulder -15.114373 -33.872878 22.252676
LeftArm -0.260924 2.962625 -6.856202
LeftForeArm 13.065222 -0.000000 -2.376905
LeftHand -8.029182 -0.000000 -7.370992
LeftHandThumb1 -26.253704 0.000000 33.147579
RightShoulder -12.308988 -2.562788 -12.266606
RightArm 6.319200 34.898016 8.959699
RightForeArm -39.457714 -0.000000 4.826775
RightHand -6.075653 -0.000000 12.499073
RightHandThumb1 -24.326973 -0.000000 -32.862282
LeftUpLeg -1.338257 12.763253 4.463927
LeftLeg -5.870921 -0.000000 0.000000
LeftFoot -20.076010 27.316010 -13.156646
LeftToeBase 26.901902 -0.000000 -0.000000
RightUpLeg -2.164096 -9.207245 -0.983183
RightLeg -2.568790 -0.000000 0.000000
RightFoot -21.008434 -22.195225 17.053736
RightToeBase 24.467893 -0.000000 -0.000000
6
root 16.339274 35.343895 -21.300759 118.937809 -88.042963 -109.720902
Spine -20.879532 -0.298142 2.688769
Head 7.377643 0.513940 -0.121875
LeftShoulder -15.105782 -33.883470 22.257664
LeftArm -0.257029 2.973447 -6.881706
LeftForeArm 13.082826 -0.000000 -2.404025
LeftHand -8.013979 -0.000000 -7.342752
LeftHandThumb1 -26.253704 0.000000 33.147579
RightShoulder -12.304308 -2.550662 -12.259876
RightArm 6.332758 35.008789 8.984331
RightForeArm -39.552749 0.000000 4.806733
RightHand -6.021920 -0.000000 12.505934
RightHandThumb1 -24.326973 -0.000000 -32.862282
LeftUpLeg -1.343657 12.754970 4.462223
LeftLeg -5.870575 -0.000000 0.000000
LeftFoot -20.062711 27.311895 -13.143646
LeftToeBase 26.915132 -0.000000 -0.000000
RightUpLeg -2.161602 -9.210802 -0.984915
RightLeg -2.571983 -0.000000 0.000000
RightFoot -21.006602 -22.203473 17.052839
RightToeBase 24.470275 -0.000000 -0.000000
7
root 16.344713 35.344574 -21.299661 118.690439 -88.049987 -109.478298
Spine -20.870058 -0.298901 2.702570
Head 7.366336 0.511455 -0.143613
LeftShoulder -15.100274 -33.913325 22.256896
LeftArm -0.268633 3.000728 -6.891212
LeftForeArm 13.039693 -0.000000 -2.389271
LeftHand -8.044254 0.000000 -7.368607
LeftHandThumb1 -26.253704 0.000000 33.147579
RightShoulder -12.314230 -2.546289 -12.269234
RightArm 6.355150 34.960439 9.012498
RightForeArm -39.473247 -0.000000 4.795389
RightHand -5.964128 -0.000000 12.564261
RightHandThumb1 -24.326973 -0.000000 -32.862282
LeftUpLeg -1.349370 12.737677 4.456449
LeftLeg -5.874917 -0.000000 0.000000
LeftFoot -20.064689 27.313241 -13.172694
LeftToeBase 26.921358 -0.000000 -0.000000
RightUpLeg -2.165578 -9.204295 -0.989990
RightLeg -2.567849 -0.000000 0.000000
RightFoot -21.001709 -22.222981 17.049005
RightToeBase 24.465060 -0.000000 -0.000000
8
root 16.350072 35.345269 -21.299358 118.096659 -88.060537 -108.889031
Spine -20.868639 -0.306050 2.710959
Head 7.378640 0.503536 -0.155876
LeftShoulder -15.079916 -33.910224 22.251737
LeftArm -0.274388 2.989111 -6.912222
LeftForeArm 13.027530 -0.000000 -2.385423
LeftHand -8.072145 -0.000000 -7.370869
LeftHandThumb1 -26.253704 0.000000 33.147579
RightShoulder -12.317982 -2.572842 -12.264770
RightArm 6.379766 34.993608 9.044693
RightForeArm -39.434884 -0.000000 4.768898
RightHand -5.940101 0.000000 12.644393
RightHandThumb1 -24.326973 -0.000000 -32.862282
LeftUpLeg -1.361663 12.731061 4.454100
LeftLeg -5.868377 -0.000000 0.000000
LeftFoot -20.050648 27.306081 -13.142618
LeftToeBase 26.920565 -0.000000 -0.000000
RightUpLeg -2.164552 -9.225253 -0.991359
RightLeg -2.572341 -0.000000 0.000000
RightFoot -20.996239 -22.214994 17.052669
RightToeBase 24.501199 -0.000000 -0.000000
9
root 16.355749 35.345914 -21.298480 117.732723 -88.065460 -108.527432
Spine -20.863542 -0.313579 2.723502
Head 7.374331 0.521928 -0.146269
LeftShoulder -15.081325 -33.941318 22.272657
LeftArm -0.285862 2.999089 -6.938358
LeftForeArm 13.031474 -0.000000 -2.388504
LeftHand -8.081735 0.000000 -7.352882
LeftHandThumb1 -26.253704 0.000000 33.147579
RightShoulder -12.315038 -2.573646 -12.268693
RightArm 6.396688 35.042921 9.076862
RightForeArm -39.486329 0.000000 4.768263
RightHand -5.875318 0.000000 12.516720
RightHandThumb1 -24.326973 -0.000000 -32.862282
LeftUpLeg -1.371873 12.721586 4.450371
LeftLeg -5.867519 -0.000000 0.000000
LeftFoot -20.041815 27.299854 -13.152033
LeftToeBase 26.914929 -0.000000 -0.000000
RightUpLeg -2.166161 -9.227274 -0.990088
RightLeg -2.578834 -0.000000 0.000000
RightFoot -20.988982 -22.226432 17.075136
RightToeBase 24.483542 -0.000000 -0.000000
10
root 16.361082 35.346468 -21.297623 117.468275 -88.071833 -108.266994
Spine -20.856519 -0.313934 2.735269
Head 7.375158 0.539154 -0.155710
LeftShoulder -15.072868 -33.946088 22.271491
LeftArm -0.287268 2.992267 -6.953470
LeftForeArm 13.022708 -0.000000 -2.398379
LeftHand -8.073516 0.000000 -7.365868
LeftHandThumb1 -26.253704 0.000000 33.147579
RightShoulder -12.314565 -2.580544 -12.263883
RightArm 6.405251 35.071157 9.092914
RightForeArm -39.507700 -0.000000 4.762228
RightHand -5.743951 -0.000000 12.398581
RightHandThumb1 -24.326973 -0.000000 -32.862282
LeftUpLeg -1.383332 12.730283 4.444335
LeftLeg -5.862776 -0.000000 0.000000
LeftFoot -20.040594 27.285073 -13.161926
LeftToeBase 26.916402 -0.000000 -0.000000
RightUpLeg -2.173849 -9.236180 -0.993853
RightLeg -2.568788 -0.000000 0.000000
RightFoot -20.982960 -22.222326 17.063351
RightToeBase 24.489485 -0.000000 -0.000000
11
root 16.366263 35.347306 -21.297548 117.145813 -88.079799 -107.944767
Spine -20.859163 -0.323137 2.746365
Head 7.383012 0.555990 -0.159248
LeftShoulder -15.053099 -33.960387 22.264486
LeftArm -0.305227 2.997240 -6.954416
LeftForeArm 13.012769 -0.000000 -2.401811
LeftHand -8.065242 -0.000000 -7.357316
LeftHandThumb1 -26.253704 0.000000 33.147579
RightShoulder -12.302740 -2.568702 -12.260102
RightArm 6.409449 35.064653 9.098558
RightForeArm -39.492581 -0.000000 4.737939
RightHand -5.798923 -0.000000 12.417318
RightHandThumb1 -24.326973 -0.000000 -32.862282
LeftUpLeg -1.393558 12.716086 4.441526
LeftLeg -5.859398 -0.000000 0.000000
LeftFoot -20.010190 27.282574 -13.127732
LeftToeBase 26.929410 -0.000000 -0.000000
RightUpLeg -2.178009 -9.244360 -0.995767
RightLeg -2.571861 -0.000000 0.000000
RightFoot -20.982889 -22.222017 17.072658
RightToeBase 24.459621 -0.000000 -0.000000
